<svg xmlns="http://www.w3.org/2000/svg" version="1.1" xmlns:xlink="http://www.w3.org/1999/xlink" width="834" height="731"><svg width="834" height="731" viewBox="0 0 834 731" fill="none" xmlns="http://www.w3.org/2000/svg">
<mask id="SvgjsMask1006" style="mask-type:luminance" maskUnits="userSpaceOnUse" x="0" y="0" width="834" height="731">
<path d="M0 4.95911e-05H834V731H0V4.95911e-05Z" fill="white"></path>
</mask>
<g mask="url(#mask0_1_4)">
<path d="M451.607 307.132L440.986 298.178C435.836 293.856 429.105 291.464 422.058 291.464C420.731 291.464 419.393 291.551 418.081 291.721L417.879 291.746C412.244 292.402 407.014 294.636 402.75 298.205L340.757 350.389L333.676 348.939C327.701 347.715 321.698 346.345 315.331 344.75L315.162 344.707C311.995 343.874 308.631 342.964 304.881 341.926L304.782 341.898C298.349 340.071 292.241 338.162 286.624 336.228C280.286 334.142 273.857 331.78 266.974 329.009C241.166 318.573 227.494 309.181 226.925 308.787L221.84 305.262V193.178L227.858 189.698C284.526 156.935 373.173 146.099 408.654 142.96C414.018 142.468 417.945 142.203 419.832 142.076L419.854 142.074C420.526 141.984 421.2 141.94 421.886 141.94H423.816L424.505 142.115C427.953 142.359 431.888 142.684 435.979 143.062C441.971 143.57 449.139 144.321 456.714 145.236C460.885 145.715 464.531 146.179 468.098 146.683C484.072 148.82 499.828 151.5 514.934 154.648C533.524 158.534 550.68 163.051 565.937 168.078C585.227 174.404 602.049 181.68 615.913 189.699L621.93 193.179V305.275L616.824 308.8C615.298 309.855 578.625 334.798 510.056 348.936L502.96 350.398L451.607 307.132Z" fill="#55C9F4"></path>
<path d="M422.059 287.893C430.16 287.893 437.882 290.629 443.804 295.598L504.186 346.477L509.122 345.458C576.786 331.507 612.805 307.03 614.304 305.995L617.853 303.542V195.102L613.667 192.679C600.06 184.81 583.52 177.658 564.507 171.422C549.406 166.447 532.411 161.973 513.988 158.122C498.999 154.998 483.351 152.337 467.482 150.215C463.93 149.711 460.35 149.256 456.184 148.776C448.637 147.867 441.524 147.12 435.587 146.616C431.513 146.241 427.579 145.917 424.178 145.675L423.764 145.646L423.235 145.512H421.885C421.402 145.512 420.939 145.542 420.471 145.605L420.1 145.639C418.279 145.762 414.398 146.024 409.079 146.513C373.88 149.625 286.011 160.355 230.102 192.679L225.914 195.101V303.533L229.453 305.985C230.006 306.369 243.322 315.511 268.682 325.767C275.475 328.5 281.815 330.83 288.057 332.884C293.665 334.815 299.695 336.698 306.038 338.502C309.837 339.552 313.183 340.457 316.334 341.285L316.474 341.321C322.744 342.893 328.682 344.249 334.603 345.462L339.53 346.47L399.928 295.63C404.826 291.527 410.846 288.962 417.342 288.206L417.525 288.183C418.991 287.991 420.531 287.893 422.059 287.893ZM501.735 354.32L438.161 300.752C433.772 297.068 428.051 295.036 422.059 295.036C420.932 295.036 419.795 295.11 418.681 295.255L418.434 295.285C413.643 295.843 409.199 297.744 405.565 300.788L341.984 354.309L332.749 352.418C326.697 351.178 320.633 349.793 314.21 348.183L314.018 348.135C310.806 347.289 307.425 346.376 303.654 345.332L303.525 345.296C297.024 343.449 290.837 341.516 285.134 339.552C278.767 337.457 272.252 335.064 265.274 332.255C239.038 321.646 224.984 311.994 224.397 311.588L217.764 306.99V191.255L225.614 186.717C283.034 153.517 372.462 142.571 408.245 139.407C413.555 138.92 417.463 138.653 419.405 138.522C420.22 138.42 421.053 138.369 421.885 138.369H424.398L425.247 138.585C428.617 138.827 432.464 139.146 436.406 139.509C442.416 140.019 449.642 140.777 457.271 141.697C461.492 142.183 465.149 142.647 468.748 143.158C484.799 145.306 500.668 148.004 515.876 151.174C534.631 155.094 551.955 159.656 567.369 164.735C586.949 171.155 604.038 178.552 618.156 186.718L626.003 191.257V307.008L619.346 311.606C617.788 312.682 580.39 338.103 510.989 352.412L501.735 354.32Z" fill="#292929"></path>
<path d="M609.438 438.25L595.126 425.82C605.415 478.623 570.467 542.652 570.467 542.652L553.044 530.209C555.143 565.255 479.284 615.102 479.284 615.102L471.036 590.914C454.699 603.662 441.341 611.792 431.53 616.955C427.811 618.87 424.627 620.379 421.95 621.534H421.935C421.892 621.52 421.863 621.509 421.82 621.495C419.142 620.342 415.959 618.832 412.24 616.917C402.428 611.754 389.071 603.624 372.733 590.877L364.486 615.064C364.486 615.064 288.627 565.217 290.725 530.17L273.302 542.614C273.302 542.614 238.355 478.585 248.644 425.795L234.331 438.212L228.152 329.511C232.681 332.771 236.704 336.513 240.119 340.634C243.535 344.769 246.328 349.285 248.397 354.092C253.564 366.129 262.998 382.669 277.383 388.364C300.941 397.75 300.941 398.689 305.038 402.913C309.118 407.073 328.958 458.76 328.958 458.76L388.651 427.089C391.532 425.553 395.149 425.503 398.057 426.974C404.729 430.349 416.841 435.777 421.907 433.582V433.633C421.892 433.633 421.878 433.62 421.863 433.62V447.637C421.052 448.27 409.158 457.263 392.183 457.263C354.847 457.263 339.131 474.006 339.131 474.006C339.131 474.006 368.581 489.658 386.017 487.325C400.271 485.384 415.178 482.948 420.169 482.163V482.01C420.169 482.01 420.286 482.01 420.589 482.111L421.907 482.276H421.95V482.302L423.179 482.149C423.484 482.035 423.599 482.035 423.599 482.035V482.199C428.592 482.986 443.497 485.422 457.751 487.363C475.175 489.683 504.638 474.044 504.638 474.044C504.638 474.044 488.923 457.301 451.587 457.301C433.99 457.301 421.863 447.637 421.863 447.637C421.892 447.61 421.907 447.598 421.907 447.598V433.633C427 435.789 439.055 430.36 445.712 427.013C448.62 425.541 452.238 425.579 455.119 427.127L514.812 458.785C514.812 458.785 534.651 407.111 538.732 402.95C542.827 398.726 542.827 397.788 566.387 388.402C580.771 382.707 590.206 366.154 595.373 354.13C597.442 349.323 600.235 344.807 603.649 340.672C607.065 336.538 611.089 332.796 615.617 329.536L609.438 438.25Z" fill="#292929"></path>
<path d="M273.263 277.744C272.272 286.292 268.55 292.781 262.628 291.769C258.593 291.078 256.597 290.733 252.685 290.078C253.717 278.934 253.88 267.981 253.88 256.802H261.813C269.894 256.802 273.29 259.671 273.29 268.981C273.29 272.47 273.725 273.732 273.263 277.744ZM260.943 211.966C267.191 211.168 271.511 219.157 271.511 226.312V231.896C271.511 239.92 267.477 242.492 260.835 242.492H253.88C253.989 232.491 253.554 223.05 252.562 213.061C255.863 212.621 257.547 212.406 260.943 211.966ZM291.098 269.981C291.437 261.219 287.783 251.861 277.827 248.504C285.759 245.206 289.318 238.622 289.318 228.324C289.318 226.883 289.318 226.348 289.182 224.502C288.096 208.513 285.135 179.654 259.259 190.083C248.732 193.929 243.815 195.905 236.086 199.834V301.9C244.548 305.65 249.669 308.341 260.549 313.532C286.276 327.092 289.902 293.233 291.03 278.315C291.342 274.065 291.098 273.244 291.098 269.981Z" fill="#292929"></path>
<path d="M327.84 168.677L330.57 168.034C329.687 168.165 328.777 168.38 327.84 168.677Z" fill="#292929"></path>
<path d="M326.522 246.789H319.568C319.568 229.455 318.467 206.692 318.304 189.345C322.108 187.214 331.385 184.702 334.536 185.821C336.383 186.464 336.927 212.073 336.927 221.062L337.198 233.491C337.198 243.551 333.151 246.789 326.522 246.789ZM355.155 274.267C355.508 265.981 352.86 256.457 343.352 252.945C351.27 249.647 354.992 242.92 354.992 232.61C354.992 229.467 355.318 229.098 354.748 224.324C354.585 222.883 354.435 220.645 354.232 217.883L352.67 174.606C352.235 168.796 346.014 164.689 339.535 165.927L330.57 168.034L327.84 168.677C318.63 171.356 309.421 174.023 300.225 176.773C301.855 227.883 301.774 278.434 299.723 329.545C307.329 331.878 311.146 332.831 318.522 333.843C318.943 309.591 319.568 285.351 319.568 261.1H325.721C333.803 261.1 337.361 264.541 337.361 273.839C337.511 284.161 337.592 294.471 337.633 304.781C337.728 314.532 338.353 324.08 338.027 333.997C341.939 331.688 349.043 327.378 355.468 321.913C355.468 317.735 355.468 313.71 355.182 300.602C355.984 291.935 354.816 282.982 355.155 274.267Z" fill="#292929"></path>
<path d="M400.563 201.179C400.889 203.406 401.134 205.525 401.297 207.37V201.263L400.563 201.179Z" fill="#292929"></path>
<path d="M446.447 224.419V225.24H446.468C446.447 224.967 446.447 224.693 446.447 224.419Z" fill="#292929"></path>
<path d="M550.521 178.297C543.254 175.832 539.614 174.689 532.428 172.713C524.971 198 521.833 221.645 509.187 245.349C509.187 219.419 509.554 193.488 509.962 167.558C503.754 166.356 500.386 165.689 493.377 164.344C491.407 218.168 491.394 271.779 491.842 325.616C499.014 330.319 499.272 334.128 507.639 334.486C508.535 313.496 509.581 292.138 509.187 271.124C511.388 267.457 512.488 265.624 514.689 261.957C524.156 283.804 526.601 305.769 532.116 328.628C539.26 326.461 542.846 325.318 550.072 322.878C543.077 296.102 536.897 271.874 525.528 246.361C537.929 223.966 542.344 202.179 550.521 178.297Z" fill="#292929"></path>
<path d="M558.779 181.202C558.331 227.502 558.439 273.803 558.073 320.116C565.136 317.615 568.695 316.294 575.826 313.508C576.233 271.743 576.084 229.979 576.844 188.226C569.673 185.262 566.046 183.845 558.779 181.202Z" fill="#292929"></path>
<path d="M589.735 193.75C588.988 231.907 589.164 270.053 588.852 308.222C596.037 305.198 599.65 303.603 606.904 300.245V201.691C600.207 198.465 596.757 196.858 589.735 193.75Z" fill="#292929"></path>
<path d="M629.937 289.65L621.93 291.921V206.108L630.811 209.18C636.111 211.014 639.562 215.307 639.562 220.065V278.489C639.562 283.531 635.695 288.016 629.937 289.65Z" fill="#292929"></path>
<path d="M213.832 289.65L221.84 291.921V206.108L212.959 209.18C207.659 211.014 204.207 215.307 204.207 220.065V278.489C204.207 283.531 208.075 288.016 213.832 289.65Z" fill="#292929"></path>
<path d="M383.34 196.977V199.203L383.15 199.179C383.204 198.453 383.272 197.715 383.34 196.977Z" fill="#2B5B93"></path>
<path d="M401.528 267.09C401.188 269.566 397.222 271.221 391.15 273.521C385.092 275.821 381.832 273.075 382.933 267.606C383.625 247.41 383.286 232.639 382.96 212.442C382.81 209.521 382.81 205.201 383.15 200.683C383.204 199.968 383.272 199.24 383.34 198.513V183.666C383.34 180.757 386.084 178.398 389.452 178.398H395.198C398.567 178.398 401.297 180.757 401.297 183.666V208.816C401.419 210.212 401.487 211.444 401.514 212.442C401.65 232.509 401.745 247.022 401.528 267.09ZM418.656 204.708L419.145 171.697C419.281 163.318 410.819 156.769 401.188 157.791L396.869 158.248L381.384 159.879L377.948 160.243C369.92 161.088 363.889 166.98 363.889 173.973V198.501L364.011 198.513C363.509 209.521 364.528 220.199 365.275 226.806C365.397 243.939 365.397 261.074 365.261 278.219C364.935 282.279 361.947 300.305 368.249 303.661C374.851 307.158 385.88 297.065 389.602 294.555C398.648 288.428 407.667 279.029 419.39 277.949V226.818C419.254 222.112 419.308 213.885 418.656 204.708Z" fill="#292929"></path>
<path d="M401.297 201.263V207.37C401.134 205.525 400.89 203.406 400.564 201.179L401.297 201.263Z" fill="#2B5B93"></path>
<path d="M464.295 215.044C464.377 213.407 464.309 210.531 464.091 207.048V181.466C464.091 177.702 460.546 174.651 456.172 174.651H454.366C449.992 174.651 446.447 177.702 446.447 181.466V226.531L446.474 208.983C447.33 230.06 480.191 223.366 481.192 246.59C482.204 270.056 485.327 307.328 454.945 293.725C445.953 289.7 434.267 280.415 428.123 277.899C428.137 277.208 428.123 245.61 428.123 243.191H444.953C444.953 246.008 444.969 269.767 444.956 270.738C444.93 273.157 454.385 279.41 460.076 281.386C465.754 283.349 463.562 256.718 463.399 251.808C462.652 230.905 428.884 237.79 428.612 214.107C428.558 208.811 427.933 210.552 428.694 198.78L428.599 198.768V171.997C428.599 165.03 434.385 159.161 442.087 158.32L445.374 157.958L464.363 158.215C473.599 157.197 481.709 163.72 481.586 172.067L481.138 202.614C481.736 212.059 481.328 210.473 481.07 216.446C480.948 217.919 464.2 217.615 464.295 215.044Z" fill="#292929"></path>
<path d="M446.468 225.24H446.447V224.419C446.447 224.693 446.447 224.967 446.468 225.24Z" fill="#2B5B93"></path>
</g>
</svg><style>@media (prefers-color-scheme: light) { :root { filter: none; } }
@media (prefers-color-scheme: dark) { :root { filter: none; } }
</style></svg>