<svg width="1024" height="1024" viewBox="0 0 1024 1024" fill="none" xmlns="http://www.w3.org/2000/svg">
<g clip-path="url(#clip0_1_2)">
<g clip-path="url(#clip1_1_2)">
<path d="M272 284C275.547 289.28 277.333 335.2 279.547 369.24C281.627 401.24 282.667 426.08 284.88 450.133C287.168 474.997 289.76 492.8 291.987 547.787C293.068 574.483 311.947 592.373 320.853 608.387C330.628 625.961 351.04 640.373 369.707 660.813C382.947 675.312 400.8 682.187 420.813 687.093C442.491 692.408 469.227 693.76 516.707 693.787C541.201 693.801 558.133 682.24 579.92 671.16C597.003 662.472 607.947 647.627 623.053 635.6C637.143 624.383 645.28 607.627 659.053 591.627C678.533 568.998 687.947 540.16 697.747 511.653C716.18 458.033 703.093 365.867 706.653 347.627C710.55 327.663 717.28 308.107 719.56 289.373C721.1 276.722 714.667 324.747 712.013 347.48C709.757 366.811 705.787 381.733 704.013 386.2C697.741 402 703.093 344.533 711.08 325.853C715.725 314.99 717.307 302.72 721.747 296.92C741.956 270.52 723.573 388.8 715.147 413.24C708.431 432.717 702.24 451.893 694.253 469.267C684.878 489.661 683.573 508.8 676.92 528.373C671.038 545.677 654.293 557.707 632.093 578.587C612.803 596.73 589.494 610.133 567.627 618.2C546.621 625.949 513.12 628 489.4 617.827C467.927 608.617 449.92 588.107 431.173 554.4C400.184 498.681 405.387 475.2 399.573 457.4C392.552 435.901 379.627 407.68 372.907 385.853C367.272 367.552 363.573 349.867 355.587 332.067C353.615 327.673 352.907 323.2 352.013 325.773C332.892 380.855 360.853 471.413 365.76 497.68C370.541 523.275 376.853 542.56 387.067 562.6C396.315 580.746 460 580 507.88 571.6C534.409 566.946 549.227 546.293 575.453 520.56C611.031 485.652 630.187 439.68 639.96 412.133C648.991 386.679 648 352.613 643.6 334.76C630.379 281.113 592.96 429.653 583.587 451.04C573.703 473.591 532.693 512.213 500.547 535.067C494.446 539.404 485.493 537.333 478.773 535.573C447.321 527.336 425.013 462.08 416.453 413.547C413.451 396.524 416 369.867 420.84 366.387C461.246 337.334 461.28 425.227 474.613 440.84C480.553 447.795 489.733 451.093 498.6 453.76C502.965 455.073 507.467 454.667 512.373 450.267C538.083 427.211 543.04 382.027 545.787 334.347C546.441 322.985 531.627 365.653 509.893 385.28C475.839 416.033 432.16 361.44 412.947 345.827C396.173 332.196 379.627 318.72 352.107 300.96C341.469 294.095 334.267 287.573 333.32 282.267C330.28 265.223 424.24 268 524.213 267.12C575.259 266.671 592.8 260.907 650.44 263.08C669.799 263.81 674.64 282.187 678.64 293.68C691.284 330.01 660.48 351.467 645.84 364.84C628.851 380.359 603.68 388.853 582.307 398.627C554.365 411.404 530.773 419.093 491.387 424.427C421.116 433.942 368.054 424.453 358.293 421.36C339.698 415.467 326.293 397.867 309.84 384.933C294.465 372.847 280.96 357.867 264.947 347.147C249.708 336.946 242.72 316.96 239.56 293.427C238.782 287.635 238.24 283.2 237.787 284.013C229.158 299.496 240 338.827 245.307 366.6C248.905 385.431 261.28 403.893 269.307 427.907C277.87 453.525 284.427 476.8 285.773 499.027C286.93 518.118 295.973 533.707 299.533 541.293C308.477 560.353 287.147 492.107 282.68 473.4C278.464 455.744 275.573 436.107 272.013 416.96C267.978 395.256 263.147 370.347 256.467 355.573C244.935 330.07 258.613 424.373 264.427 441.267C270.517 458.965 277.28 476.8 284.427 494.6C290.868 510.643 300.373 523.947 304 534.653C309.974 552.29 299.573 496.533 293.8 478.733C288.171 461.377 284.48 443.2 276.92 425.4C269.061 406.895 262.24 389.867 256.027 367.64C250.549 348.046 240.907 331.2 232.04 316.053C229.783 312.199 226.72 308.96 225.36 312.427C214.656 339.713 230.187 359.467 239.52 375.053C249.66 391.987 252.427 414.56 255.547 437.227C260.71 474.737 262.187 492.8 273.733 508.387C285.387 524.118 289.707 544.373 294.213 563.48C296.437 572.908 298.667 581.733 297.347 586.2C289.54 612.616 276.48 516.107 274.227 492.533C272.13 470.6 265.813 451.2 260.467 431.627C255.745 414.342 243.627 401.387 232.48 387.613C226.62 380.372 225.787 369.387 226.213 364.027C227.618 346.382 239.093 398.56 240.88 428.773C242.222 451.468 248.853 468.8 259.067 483.947C269.868 499.965 279.947 516.8 288.413 534.6C296.88 552.4 300.427 573.653 309.293 590.613C318.362 607.96 375.627 606.667 415.013 596.933C437.504 591.375 452.373 575.627 478.547 556.093C514.634 529.161 526.133 504.533 539.507 486.733C553.889 467.591 567.947 451.2 580.84 433.84C593.304 417.059 607.947 399.627 634.96 380.973C682.554 348.109 706.587 356 719.907 358.64C743.699 363.356 733.333 415.36 733.333 433.693C733.333 484.674 736 359.68 743.08 335.64C748.461 317.369 751.947 299.2 754.227 286.24C757.147 269.643 741.387 322.133 737.787 342.147C734.373 361.124 724.48 379.893 718.24 399.48C711.197 421.588 714.667 443.893 709.36 463.04C703.818 483.037 690.72 498.133 679.6 515.933C668.325 533.982 657.813 548.8 649.347 557.333C634.889 571.905 671.04 522.293 679.973 505.4C688.853 487.6 697.76 474.267 701.747 465.4C703.973 460.933 706.613 456.533 709.333 452" stroke="white" stroke-width="119" stroke-linecap="round"/>
<path d="M312 454.667C311.12 447.6 305.813 428.107 299.133 399.227C297.394 391.707 296.907 384.587 294.693 384.92C270.972 388.492 279.147 427.893 277.334 441.813C269.813 499.546 273.787 370.267 272.013 366.68C264.003 350.478 266.667 408.293 266.667 420.84C266.667 423.253 266.667 398.187 266.667 390.4C266.667 383.014 264 426.907 264 450.533C264 480.146 260.453 407.6 258.68 403.573C256.292 398.151 256 426.107 255.56 440.8C255.488 443.218 250.694 428.053 246.694 426.213C243.333 424.667 245.334 441.973 244.014 446.12C242.694 450.267 240.054 445.867 238.694 441.4C233.177 423.282 230.24 399.68 231.533 351.733C231.807 341.576 238.133 338.293 243.48 336.48C248.827 334.667 254.987 334.667 259.92 336.867C281.428 346.458 280.853 380.8 290.627 401.693C301.781 425.539 334.027 442.133 363.893 450.2C395.585 458.76 422.08 464.427 448.347 467.547C455.009 468.338 462.08 468 460.427 468C424.038 468 383.253 456.48 363.173 446.707C342.885 436.832 323.627 417.387 312.04 397.413C309.223 392.557 306.72 388.96 302.28 389.347C297.84 389.733 291.68 394.133 288.507 398.6C277.436 414.183 282.667 466.72 290.187 506.573C292.223 517.364 297.76 525.733 299.107 530.64C302.781 544.025 285.334 501.867 280.467 481.853C279.261 476.897 278.24 472.533 277.787 483.027C277.334 493.52 277.334 519.04 277.334 522.507C277.334 525.973 277.334 506.613 275.133 497.08C272.933 487.547 268.533 488.427 265.827 491.52C259.828 498.375 261.334 514.133 263.093 528.787C265.313 547.264 287.067 550.64 293.293 552C309.404 555.519 280.96 510.827 271.147 489.84C267.013 481 258.694 475.147 255.133 472.013C243.056 461.383 270.187 512.32 275.093 531.933C279.636 550.091 291.467 567.467 300.867 585.267C309.487 601.591 312.853 620.8 325.72 640.813C338.771 661.113 352.8 677.707 366.614 692.827C383.84 711.683 401.707 720.373 419.04 727.093C453.606 740.494 507.467 730.24 524.387 723.147C540.679 716.317 553.707 697.44 570.6 680.067C589.357 660.777 599.947 644.96 612.84 632.493C629.005 616.863 642.613 596.96 657.72 582.28C661.58 578.529 663.947 573.867 665.307 573.8C679.442 573.107 659.573 607.467 651.147 623.053C642.145 639.704 632.96 654.613 625.8 670.6C617.667 688.76 608.054 704.373 597.374 720.827C586.891 736.975 570.72 749.707 552.96 761.733C536.796 772.679 519.2 776.427 423.933 776.013C388.491 775.86 372.533 743.68 359.6 726.28C347.119 709.489 329.013 690.347 314.707 673.387C301.344 657.546 296.907 632.533 293.347 613.853C289.099 591.563 283.573 573.867 281.347 550.76C278.929 525.675 272 463.2 280.84 423.613C286.48 398.355 336.747 397.813 368.293 393.787C420.855 387.078 484.8 417.12 540.32 462.053C559.157 477.299 554.667 502.587 557.307 514.587C558.351 519.333 565.227 518.667 570.147 518.227C601.334 515.438 637.173 446.027 652.853 410.773C662.248 389.653 678.08 367.68 713.214 332.133C724.697 320.515 729.733 311.573 738.16 310.227C746.199 308.942 749.333 338.88 748.453 371.347C748.193 380.97 745.813 376.533 744.907 372.067C741.348 354.535 741.333 325.973 741.333 301.04C741.333 284.324 738.667 347.787 733.8 374.147C730.122 394.067 728.907 415.467 724.907 433.267C720.619 452.347 715.573 471.467 712.013 489.267C708.416 507.256 700.48 524.8 692.04 542.6C677.36 559.52 669.36 571.067 663.16 579.933C659.6 584.4 655.2 588.8 648 598.667" stroke="white" stroke-width="119" stroke-linecap="round"/>
<path d="M648 598.667C653.307 580.08 662.187 549.92 670.187 529.84C678.281 509.525 697.707 494.72 718.147 457.933C733.471 430.353 737.76 402.347 746.627 384.067C755.547 361.387 759.093 341.867 758.68 299.72C757.36 290.267 754.72 285.867 746.667 276" stroke="white" stroke-width="119" stroke-linecap="round"/>
<path d="M680 426.667C680 428.427 679.12 433.733 679.987 441.28C680.397 444.855 686.133 446.187 691.04 444.453C724.489 432.637 731.547 384.053 734.2 377.813C742.284 358.803 737.813 439.84 731.133 463.48C728.528 472.701 727.12 482.613 725.787 487.533C718.853 513.12 743.093 420.587 744 409.307C747.237 369.027 740.453 470.16 740 476.413C738.734 493.875 746.667 438.347 749.32 414.307C749.918 408.892 751.093 404.533 751.987 404.467C768.073 403.266 749.387 452.267 735.613 479.013C727.37 495.022 721.787 508.4 721.773 512.427C721.709 531.825 743.04 472.107 754.187 448.973C758.771 439.46 765.28 428.507 772.84 422.253C785.832 411.507 766.24 456.8 760.027 472.413C758.083 477.298 754.667 449.92 755.107 430.787C755.141 429.314 757.334 450.507 757.334 472.307C757.334 479.732 768.8 434.88 775.547 409.413C778.833 397.007 779.52 382.293 785.733 373.827C801.549 352.276 786.72 447.893 779.133 466.6C772.414 483.167 764.48 501.227 752.053 526.133C742.662 544.956 730.72 559.04 720.04 575.493C710.24 591.067 704.907 605.28 700.92 615.04C698.694 619.52 696.054 623.04 693.334 626.667" stroke="white" stroke-width="24" stroke-linecap="round"/>
<path d="M730.667 336C730.667 337.76 735.947 337.787 745.707 338.213C755.041 338.621 757.333 363.387 759.093 386.96C759.62 394.016 764.373 390.293 767.947 386.28C783.314 369.021 783.093 347.6 786.2 343.133C788.982 339.134 789.333 362.56 790.213 376.36C790.94 387.753 799.093 352.933 802.64 348.467C816.761 330.683 805.36 402.613 799.6 411.933C796.916 416.276 792.96 418.613 791.147 416.893C776.994 403.469 798.187 374.347 801.32 354.733C802.852 345.144 808 336.053 808.44 325.853C808.653 320.918 809.76 316.533 810.213 327.027C813.131 394.563 800.053 414.133 791.587 433.707C784.221 450.735 771.627 465.707 760.04 482.16C754.72 489.707 749.36 496.853 744.04 504.387C741.36 508.4 738.72 512.8 733.333 525.333" stroke="white" stroke-width="24" stroke-linecap="round"/>
<mask id="mask0_1_2" style="mask-type:luminance" maskUnits="userSpaceOnUse" x="-228" y="-266" width="1416" height="1488">
<path d="M-228 -266H1188V1222H-228V-266Z" fill="white"/>
</mask>
<g mask="url(#mask0_1_2)">
<path d="M538.757 359.187L520.725 340.961C511.98 332.164 500.552 327.295 488.588 327.295C486.335 327.295 484.063 327.472 481.835 327.818L481.492 327.869C471.926 329.205 463.045 333.751 455.805 341.016L350.551 447.241L338.529 444.289C328.384 441.798 318.193 439.009 307.381 435.761L307.096 435.674C301.717 433.978 296.007 432.126 289.64 430.013L289.472 429.957C278.55 426.237 268.179 422.352 258.643 418.414C247.882 414.168 236.967 409.36 225.279 403.721C181.461 382.477 158.25 363.358 157.283 362.556L148.649 355.38V127.227L158.868 120.143C255.079 53.452 405.588 31.3937 465.831 25.0055C474.938 24.0022 481.605 23.4642 484.808 23.2049L484.845 23.2C485.987 23.0183 487.13 22.9286 488.295 22.9286H491.572L492.741 23.2848C498.597 23.7816 505.278 24.4432 512.224 25.2115C522.397 26.2463 534.566 27.7755 547.428 29.6367C554.51 30.6134 560.7 31.5561 566.756 32.5836C593.877 36.9337 620.629 42.3889 646.276 48.7965C677.838 56.7067 706.968 65.9013 732.871 76.1331C765.624 89.0113 794.183 103.821 817.723 120.145L827.939 127.229V355.407L819.27 362.583C816.678 364.73 754.413 415.504 637.994 444.282L625.947 447.258L538.757 359.187Z" fill="#55C9F4"/>
<path d="M488.59 320.025C502.344 320.025 515.454 325.594 525.509 335.709L628.029 439.278L636.409 437.203C751.292 408.805 812.445 358.979 814.991 356.873L821.017 351.881V131.143L813.91 126.211C790.806 110.192 762.724 95.6348 730.444 82.9408C704.804 72.8132 675.949 63.7058 644.67 55.8684C619.221 49.5092 592.654 44.0928 565.711 39.7718C559.68 38.7467 553.601 37.8209 546.528 36.8443C533.715 34.9928 521.637 33.4732 511.557 32.4457C504.641 31.6823 497.962 31.0231 492.187 30.5312L491.484 30.473L490.587 30.1992H488.294C487.473 30.1992 486.687 30.2598 485.894 30.3882L485.264 30.4585C482.172 30.7081 475.583 31.2413 466.552 32.2373C406.789 38.5722 257.602 60.4123 162.677 126.211L155.567 131.141V351.862L161.574 356.854C162.513 357.634 185.123 376.244 228.179 397.12C239.713 402.684 250.478 407.427 261.075 411.607C270.597 415.538 280.834 419.372 291.604 423.043C298.055 425.181 303.735 427.023 309.085 428.709L309.323 428.782C319.968 431.981 330.051 434.741 340.103 437.211L348.468 439.263L451.015 335.775C459.331 327.423 469.552 322.201 480.58 320.662L480.892 320.616C483.38 320.226 485.995 320.025 488.59 320.025ZM623.866 455.241L515.927 346.2C508.476 338.702 498.762 334.565 488.59 334.565C486.675 334.565 484.745 334.716 482.854 335.011L482.434 335.072C474.3 336.209 466.755 340.079 460.586 346.273L352.635 455.219L336.955 451.371C326.679 448.846 316.384 446.027 305.478 442.751L305.153 442.651C299.699 440.931 293.959 439.072 287.557 436.947L287.338 436.874C276.3 433.113 265.796 429.179 256.112 425.181C245.303 420.915 234.24 416.044 222.393 410.327C177.849 388.732 153.987 369.085 152.991 368.259L141.73 358.899V123.313L155.057 114.075C252.547 46.4944 404.381 24.2132 465.136 17.7717C474.151 16.7805 480.786 16.2376 484.083 15.9711C485.467 15.7626 486.881 15.6584 488.294 15.6584H492.561L494.002 16.0995C499.724 16.5915 506.255 17.2409 512.948 17.9801C523.152 19.0173 535.421 20.5611 548.373 22.4344C555.541 23.4232 561.749 24.3683 567.86 25.408C595.112 29.7799 622.056 35.2714 647.876 41.7251C679.72 49.7031 709.133 58.9898 735.303 69.3282C768.547 82.3979 797.561 97.4548 821.532 114.077L834.855 123.315V358.936L823.552 368.295C820.907 370.486 757.411 422.231 639.578 451.359L623.866 455.241Z" fill="#292929"/>
<path d="M806.73 626.088L782.43 600.785C799.899 708.27 740.563 838.605 740.563 838.605L710.982 813.275C714.545 884.614 585.749 986.082 585.749 986.082L571.745 936.845C544.007 962.795 521.328 979.345 504.67 989.853C498.356 993.752 492.95 996.823 488.404 999.174H488.379C488.305 999.147 488.257 999.123 488.183 999.096C483.637 996.748 478.232 993.675 471.917 989.775C455.26 979.267 432.581 962.718 404.842 936.77L390.839 986.005C390.839 986.005 262.043 884.537 265.606 813.198L236.024 838.528C236.024 838.528 176.688 708.192 194.158 600.734L169.857 626.01L159.367 404.742C167.055 411.377 173.886 418.994 179.684 427.384C185.484 435.801 190.226 444.993 193.738 454.779C202.511 479.28 218.53 512.949 242.952 524.54C282.951 543.647 282.951 545.559 289.906 554.157C296.834 562.625 330.518 667.837 330.518 667.837L431.868 603.368C436.76 600.242 442.901 600.14 447.839 603.135C459.167 610.003 479.731 621.054 488.331 616.585V616.69C488.305 616.69 488.282 616.663 488.257 616.663V645.194C486.88 646.484 466.685 664.79 437.864 664.79C374.474 664.79 347.791 698.871 347.791 698.871C347.791 698.871 397.792 730.733 427.396 725.983C451.598 722.032 476.906 717.074 485.381 715.474V715.164C485.381 715.164 485.579 715.164 486.094 715.37L488.331 715.705H488.404V715.758L490.491 715.448C491.008 715.215 491.204 715.215 491.204 715.215V715.55C499.682 717.151 524.987 722.11 549.189 726.06C578.772 730.783 628.796 698.949 628.796 698.949C628.796 698.949 602.113 664.868 538.723 664.868C508.846 664.868 488.257 645.194 488.257 645.194C488.305 645.141 488.331 645.117 488.331 645.117V616.69C496.979 621.079 517.446 610.028 528.749 603.213C533.686 600.217 539.828 600.295 544.719 603.445L646.069 667.888C646.069 667.888 679.753 562.702 686.681 554.232C693.634 545.634 693.634 543.724 733.635 524.618C758.058 513.026 774.077 479.331 782.849 454.856C786.362 445.07 791.103 435.878 796.901 427.462C802.701 419.045 809.532 411.428 817.221 404.793L806.73 626.088Z" fill="#292929"/>
<path d="M235.957 299.366C234.274 316.767 227.955 329.974 217.9 327.914C211.051 326.509 207.661 325.806 201.019 324.473C202.771 301.79 203.048 279.494 203.048 256.738H216.516C230.238 256.738 236.004 262.578 236.004 281.53C236.004 288.63 236.742 291.199 235.957 299.366ZM215.04 165.47C225.649 163.847 232.982 180.108 232.982 194.673V206.039C232.982 222.373 226.133 227.608 214.856 227.608H203.048C203.233 207.251 202.495 188.033 200.811 167.7C206.415 166.803 209.275 166.367 215.04 165.47ZM266.238 283.565C266.814 265.729 260.611 246.68 243.706 239.846C257.174 233.133 263.217 219.732 263.217 198.769C263.217 195.836 263.217 194.746 262.986 190.989C261.141 158.442 256.114 99.6979 212.181 120.927C194.308 128.755 185.959 132.778 172.837 140.775V348.538C187.205 356.172 195.899 361.649 214.372 372.215C258.051 399.818 264.208 330.895 266.122 300.529C266.653 291.878 266.238 290.206 266.238 283.565Z" fill="#292929"/>
<path d="M328.62 77.3536L333.255 76.045C331.756 76.3116 330.211 76.7478 328.62 77.3536Z" fill="#292929"/>
<path d="M326.383 236.356H314.575C314.575 201.071 312.707 154.735 312.43 119.425C318.888 115.087 334.639 109.973 339.989 112.251C343.126 113.56 344.048 165.689 344.048 183.986L344.51 209.287C344.51 229.765 337.637 236.356 326.383 236.356ZM374.997 292.29C375.597 275.423 371.1 256.035 354.957 248.886C368.402 242.173 374.721 228.48 374.721 207.493C374.721 201.095 375.274 200.344 374.306 190.626C374.029 187.694 373.775 183.137 373.429 177.515L370.777 89.4225C370.039 77.5961 359.477 69.2352 348.476 71.7556L333.255 76.0451L328.62 77.3538C312.984 82.8065 297.348 88.2351 281.735 93.8333C284.503 197.872 284.364 300.772 280.882 404.811C293.796 409.561 300.277 411.499 312.799 413.559C313.514 364.194 314.575 314.852 314.575 265.486H325.022C338.744 265.486 344.786 272.49 344.786 291.417C345.04 312.429 345.178 333.416 345.248 354.403C345.409 374.251 346.47 393.687 345.916 413.874C352.558 409.173 364.62 400.4 375.528 389.276C375.528 380.77 375.528 372.579 375.044 345.897C376.404 328.254 374.421 310.029 374.997 292.29Z" fill="#292929"/>
<path d="M452.093 143.514C452.647 148.046 453.062 152.36 453.339 156.116V143.684L452.093 143.514Z" fill="#292929"/>
<path d="M529.996 190.82V192.492H530.043C529.996 191.935 529.996 191.377 529.996 190.82Z" fill="#292929"/>
<path d="M706.697 96.9352C694.359 91.9187 688.178 89.5922 675.978 85.5692C663.318 137.043 657.99 185.173 636.52 233.424C636.52 180.641 637.142 127.858 637.834 75.0757C627.295 72.628 621.575 71.2709 609.676 68.5324C606.332 178.097 606.309 287.225 607.07 396.813C619.246 406.386 619.684 414.141 633.891 414.868C635.413 372.143 637.188 328.666 636.52 285.892C640.256 278.428 642.124 274.695 645.86 267.231C661.934 311.702 666.085 356.414 675.448 402.945C687.579 398.534 693.667 396.207 705.936 391.239C694.059 336.736 683.566 287.419 664.263 235.484C685.319 189.899 692.814 145.55 706.697 96.9352Z" fill="#292929"/>
<path d="M720.718 102.848C719.957 197.096 720.142 291.345 719.519 385.617C731.511 380.528 737.553 377.838 749.661 372.167C750.353 287.152 750.099 202.137 751.39 117.147C739.214 111.112 733.056 108.228 720.718 102.848Z" fill="#292929"/>
<path d="M773.276 128.392C772.008 206.063 772.308 283.711 771.777 361.407C783.977 355.251 790.112 352.004 802.427 345.169V144.556C791.057 137.988 785.199 134.717 773.276 128.392Z" fill="#292929"/>
<path d="M841.534 323.601L827.939 328.225V153.548L843.016 159.8C852.015 163.532 857.875 172.271 857.875 181.958V300.884C857.875 311.147 851.31 320.276 841.534 323.601Z" fill="#292929"/>
<path d="M135.054 323.601L148.649 328.225V153.548L133.571 159.8C124.572 163.532 118.712 172.271 118.712 181.958V300.884C118.712 311.147 125.278 320.276 135.054 323.601Z" fill="#292929"/>
<path d="M422.85 134.959V139.491L422.528 139.442C422.62 137.964 422.735 136.462 422.85 134.959Z" fill="#2B5B93"/>
<path d="M453.731 277.679C453.154 282.72 446.42 286.089 436.111 290.771C425.826 295.453 420.291 289.862 422.159 278.731C423.335 237.62 422.758 207.552 422.205 166.44C421.951 160.493 421.951 151.701 422.528 142.504C422.62 141.047 422.735 139.567 422.851 138.086V107.865C422.851 101.943 427.509 97.1416 433.229 97.1416H442.984C448.703 97.1416 453.339 101.943 453.339 107.865V159.058C453.546 161.901 453.661 164.409 453.708 166.44C453.938 207.288 454.1 236.829 453.731 277.679ZM482.812 150.698L483.642 83.5C483.873 66.4438 469.505 53.1148 453.154 55.1941L445.82 56.1247L419.53 59.4448L413.695 60.1864C400.066 61.9046 389.826 73.8983 389.826 88.1337V138.062L390.034 138.086C389.18 160.493 390.91 182.229 392.178 195.679C392.386 230.555 392.386 265.433 392.155 300.334C391.602 308.598 386.528 345.291 397.229 352.123C408.437 359.24 427.163 338.697 433.482 333.586C448.841 321.115 464.155 301.982 484.057 299.784V195.703C483.826 186.124 483.919 169.378 482.812 150.698Z" fill="#292929"/>
<path d="M453.339 143.684V156.116C453.062 152.359 452.647 148.046 452.093 143.514L453.339 143.684Z" fill="#2B5B93"/>
<path d="M560.3 171.736C560.438 168.404 560.323 162.551 559.954 155.46V103.387C559.954 95.7242 553.935 89.5129 546.509 89.5129H543.441C536.015 89.5129 529.996 95.7242 529.996 103.387V195.12L530.042 159.398C531.495 202.303 587.289 188.676 588.989 235.95C590.707 283.716 596.009 359.587 544.424 331.897C529.157 323.703 509.317 304.803 498.886 299.682C498.909 298.276 498.886 233.956 498.886 229.031H527.459C527.459 234.765 527.487 283.13 527.464 285.105C527.42 290.029 543.474 302.757 553.137 306.78C562.776 310.777 559.054 256.566 558.778 246.572C557.509 204.023 500.177 218.038 499.716 169.829C499.624 159.049 498.563 162.592 499.854 138.629L499.693 138.605V84.111C499.693 69.929 509.517 57.9838 522.593 56.2704L528.174 55.5337L560.415 56.0571C576.097 53.9851 589.865 67.2632 589.657 84.254L588.896 146.435C589.911 165.66 589.219 162.432 588.781 174.591C588.573 177.588 560.138 176.97 560.3 171.736Z" fill="#292929"/>
<path d="M530.043 192.492H529.997V190.82C529.997 191.377 529.997 191.935 530.043 192.492Z" fill="#2B5B93"/>
</g>
</g>
</g>
<defs>
<clipPath id="clip0_1_2">
<rect width="1024" height="1024" fill="white"/>
</clipPath>
<clipPath id="clip1_1_2">
<rect width="1416" height="1488" fill="white" transform="translate(-228 -252)"/>
</clipPath>
</defs>
</svg>
